<svg xmlns="http://www.w3.org/2000/svg" height="24" viewBox="0 -960 960 960" width="24"><path d="M224.615-160q-26.846 0-45.731-18.884Q160-197.769 160-224.615v-510.77q0-26.846 18.884-45.731Q197.769-800 224.615-800h510.77q10.307 0 19.615 3.038 9.308 3.039 17.077 9.116l-33.231 33.231q-2.308-2.308-5.769-3.847Q729.615-760 725-760H224.615q-10.769 0-17.692 6.923T200-735.385v510.77q0 10.769 6.923 17.692T224.615-200h510.77q10.769 0 17.692-6.923T760-224.615v-269.846l40-40.001v309.847q0 26.846-18.884 45.731Q762.231-160 735.385-160h-510.77ZM461-308.461 278.846-490.615l28.308-28.308 154.615 154.615 351.616-351.615 27.769 27.308L461-308.461Z" fill="#012970"/></svg>